<?xml version="1.0" encoding="utf-8"?>
<!-- Generator: Adobe Illustrator 26.5.0, SVG Export Plug-In . SVG Version: 6.00 Build 0)  -->
<svg version="1.1" id="Layer_1" xmlns="http://www.w3.org/2000/svg" xmlns:xlink="http://www.w3.org/1999/xlink" x="0px" y="0px"
	 viewBox="0 0 37.25 37.25" style="enable-background:new 0 0 37.25 37.25;" xml:space="preserve">
<style type="text/css">
	.st0{fill:url(#SVGID_1_);}
	.st1{fill:#F6F7F7;}
</style>
<linearGradient id="SVGID_1_" gradientUnits="userSpaceOnUse" x1="169.8056" y1="-226.4101" x2="207.0451" y2="-226.4101" gradientTransform="matrix(-0.4338 0.901 -0.901 -0.4338 -103.6473 -249.3599)">
	<stop  offset="0" style="stop-color:#E2A2C8"/>
	<stop  offset="0.0343" style="stop-color:#D99FC6"/>
	<stop  offset="0.3915" style="stop-color:#7F7FAE"/>
	<stop  offset="0.6822" style="stop-color:#3D679C"/>
	<stop  offset="0.892" style="stop-color:#155991"/>
	<stop  offset="1" style="stop-color:#05538D"/>
</linearGradient>
<circle class="st0" cx="18.62" cy="18.62" r="18.62"/>
<g>
	<path class="st1" d="M19.08,5.25c0.26,0.26,0.32,0.61,0.45,0.93c0.92,2.34,1.84,4.69,2.78,7.02c0.14,0.35,0.04,0.35-0.25,0.35
		c-0.73-0.02-1.46-0.02-2.18,0c-0.22,0.01-0.33-0.05-0.4-0.27c-0.45-1.35-0.92-2.71-1.4-4.05c-0.05-0.13,0.01-0.3-0.14-0.43
		c-0.22,0.26-0.27,0.59-0.39,0.88c-0.47,1.16-0.94,2.32-1.39,3.48c-0.06,0.17-0.1,0.36-0.3,0.27c-0.19-0.09,0.01-0.28,0.04-0.37
		c0.64-1.71,1.32-3.41,1.98-5.12c0.35-0.9,0.69-1.8,1.03-2.7C18.97,5.25,19.03,5.25,19.08,5.25z"/>
	<path class="st1" d="M25.86,26.21c-0.99,0-1.99,0-2.98,0c-0.11,0-0.3,0.09-0.31-0.12c-0.01-0.22,0.19-0.13,0.3-0.14
		c0.79-0.05,1.14-0.56,0.9-1.37c-0.42-1.41-0.96-2.78-1.52-4.14c-0.13-0.31-0.08-0.4,0.26-0.39c0.7,0.02,1.39,0.01,2.09,0
		c0.21,0,0.3,0.04,0.4,0.28c0.54,1.3,1.11,2.59,1.69,3.87c0.43,0.94,1.17,1.51,2.18,1.73c0.13,0.03,0.3,0.02,0.28,0.19
		c-0.02,0.15-0.2,0.07-0.3,0.07C27.85,26.22,26.85,26.21,25.86,26.21z"/>
	<path class="st1" d="M13.38,19.99c-0.1,0.41-0.2,0.82-0.31,1.23c-0.21,0.72-0.3,1.47-0.29,2.19c0.02,1.16,0.32,2.24,1.69,2.55
		c0.03,0.01,0.04,0.06,0.07,0.1c-0.11,0.1-0.23,0.06-0.34,0.06c-1.88,0-3.77,0-5.65,0c-0.11,0-0.34,0.13-0.34-0.13
		c0-0.22,0.2-0.1,0.31-0.13c1.71-0.41,2.83-1.49,3.52-3.07c0.41-0.94,0.85-1.87,1.21-2.83C13.29,19.97,13.34,19.98,13.38,19.99z"/>
	<path class="st1" d="M25.77,15.13c0.13,0.13,0.32,0.16,0.39,0.34c0.09,0.22-0.15,0.14-0.21,0.24c-0.09,0.14-0.27,0.21-0.4,0.34
		c-0.11,0.11-0.21,0.11-0.28-0.01c-0.11-0.21,0.06-0.37,0.12-0.56C25.46,15.26,25.65,15.26,25.77,15.13z"/>
</g>
<g>
	<path class="st1" d="M10.18,28.5v-1.31h0.03l0.87,1v-1h0.13v1.31h-0.03l-0.86-0.99v0.99H10.18z"/>
	<path class="st1" d="M12.45,27.19l0.61,1.31h-0.14l-0.21-0.43h-0.56l-0.2,0.43h-0.15l0.62-1.31H12.45z M12.43,27.47l-0.22,0.47
		h0.45L12.43,27.47z"/>
	<path class="st1" d="M13.62,27.19h0.13v1.31h-0.13V27.19z"/>
	<path class="st1" d="M14.44,27.19h0.13v1.18h0.5v0.13h-0.63V27.19z"/>
	<path class="st1" d="M15.53,28.26l0.11-0.07c0.08,0.14,0.17,0.22,0.27,0.22c0.04,0,0.09-0.01,0.12-0.03
		c0.04-0.02,0.07-0.05,0.09-0.08c0.02-0.03,0.03-0.07,0.03-0.11c0-0.04-0.01-0.09-0.04-0.13c-0.04-0.06-0.12-0.13-0.22-0.21
		c-0.11-0.08-0.18-0.14-0.2-0.18c-0.05-0.06-0.07-0.13-0.07-0.2c0-0.06,0.01-0.11,0.04-0.16c0.03-0.05,0.07-0.08,0.12-0.11
		c0.05-0.03,0.1-0.04,0.16-0.04c0.06,0,0.12,0.02,0.17,0.05c0.05,0.03,0.11,0.09,0.17,0.17l-0.11,0.08
		c-0.05-0.07-0.09-0.11-0.13-0.13c-0.03-0.02-0.07-0.03-0.11-0.03c-0.05,0-0.1,0.02-0.13,0.05s-0.05,0.07-0.05,0.12
		c0,0.03,0.01,0.06,0.02,0.08c0.01,0.03,0.03,0.06,0.06,0.09c0.02,0.02,0.07,0.06,0.17,0.13c0.11,0.08,0.19,0.16,0.23,0.22
		s0.06,0.13,0.06,0.2c0,0.09-0.04,0.18-0.11,0.25c-0.07,0.07-0.16,0.11-0.26,0.11c-0.08,0-0.15-0.02-0.22-0.06
		S15.58,28.36,15.53,28.26z"/>
	<path class="st1" d="M18.38,27.19l0.61,1.31h-0.14l-0.21-0.43h-0.56l-0.2,0.43h-0.15l0.62-1.31H18.38z M18.36,27.47l-0.22,0.47
		h0.45L18.36,27.47z"/>
	<path class="st1" d="M19.57,28.5v-1.31h0.03l0.87,1v-1h0.13v1.31h-0.03l-0.86-0.99v0.99H19.57z"/>
	<path class="st1" d="M21.3,28.5v-1.31h0.27c0.2,0,0.34,0.02,0.43,0.05c0.13,0.04,0.23,0.12,0.3,0.23c0.07,0.11,0.11,0.24,0.11,0.39
		c0,0.13-0.03,0.25-0.09,0.35c-0.06,0.1-0.13,0.17-0.22,0.22s-0.22,0.07-0.38,0.07H21.3z M21.43,28.38h0.15
		c0.18,0,0.31-0.01,0.38-0.03c0.1-0.03,0.18-0.09,0.23-0.17c0.06-0.08,0.08-0.19,0.08-0.31c0-0.13-0.03-0.23-0.09-0.32
		c-0.06-0.09-0.15-0.15-0.26-0.18c-0.08-0.02-0.22-0.04-0.41-0.04h-0.09V28.38z"/>
	<path class="st1" d="M23.8,28.26l0.11-0.07c0.08,0.14,0.17,0.22,0.27,0.22c0.04,0,0.09-0.01,0.12-0.03
		c0.04-0.02,0.07-0.05,0.09-0.08c0.02-0.03,0.03-0.07,0.03-0.11c0-0.04-0.01-0.09-0.04-0.13c-0.04-0.06-0.12-0.13-0.22-0.21
		c-0.11-0.08-0.18-0.14-0.2-0.18c-0.05-0.06-0.07-0.13-0.07-0.2c0-0.06,0.01-0.11,0.04-0.16c0.03-0.05,0.07-0.08,0.12-0.11
		c0.05-0.03,0.1-0.04,0.16-0.04c0.06,0,0.12,0.02,0.17,0.05c0.05,0.03,0.11,0.09,0.17,0.17l-0.11,0.08
		c-0.05-0.07-0.09-0.11-0.13-0.13s-0.07-0.03-0.11-0.03c-0.05,0-0.1,0.02-0.13,0.05c-0.03,0.03-0.05,0.07-0.05,0.12
		c0,0.03,0.01,0.06,0.02,0.08c0.01,0.03,0.03,0.06,0.06,0.09c0.02,0.02,0.07,0.06,0.17,0.13c0.11,0.08,0.19,0.16,0.23,0.22
		s0.06,0.13,0.06,0.2c0,0.09-0.04,0.18-0.11,0.25c-0.07,0.07-0.16,0.11-0.26,0.11c-0.08,0-0.15-0.02-0.22-0.06
		S23.85,28.36,23.8,28.26z"/>
	<path class="st1" d="M25.22,27.19h0.26c0.15,0,0.25,0.01,0.3,0.02c0.07,0.02,0.14,0.06,0.18,0.11c0.05,0.06,0.07,0.13,0.07,0.22
		c0,0.09-0.02,0.16-0.07,0.22s-0.11,0.09-0.19,0.11c-0.06,0.01-0.17,0.02-0.33,0.02h-0.09v0.61h-0.13V27.19z M25.35,27.32v0.44
		l0.22,0c0.09,0,0.16-0.01,0.2-0.02c0.04-0.02,0.07-0.04,0.1-0.08c0.02-0.04,0.04-0.08,0.04-0.12c0-0.04-0.01-0.08-0.04-0.12
		c-0.02-0.04-0.05-0.06-0.09-0.08c-0.04-0.02-0.1-0.02-0.19-0.02H25.35z"/>
	<path class="st1" d="M27.22,27.19l0.61,1.31h-0.14l-0.21-0.43h-0.56l-0.2,0.43h-0.15l0.62-1.31H27.22z M27.2,27.47l-0.22,0.47h0.45
		L27.2,27.47z"/>
</g>
<path class="st1" d="M31.38,16.13c-0.62-0.07-1.15,0.14-1.66,0.47c-0.57,0.38-0.99,0.92-1.48,1.39c-0.21,0.2-0.44,0.37-0.77,0.47
	c0.07-0.14,0.11-0.25,0.17-0.34c0.3-0.41,0.51-0.88,0.88-1.25c0.16-0.16,0.3-0.38,0.08-0.62c-0.22-0.24-0.4-0.07-0.58,0.06
	c-0.13,0.09-0.26,0.18-0.38,0.27c-0.43,0.33-0.86,0.67-1.39,1.08c0.26-0.45,0.51-0.77,0.83-1c0.2-0.15,0.15-0.27,0.02-0.38
	c-0.17-0.16-0.38-0.25-0.57-0.01c-0.14,0.17-0.28,0.35-0.42,0.51c-0.56,0.63-1.14,1.24-1.9,1.65c0.32-0.63,0.58-1.29,1.21-1.67
	c0.06-0.04,0.09-0.07,0.06-0.13c-0.08-0.16-0.18-0.29-0.35-0.37c-0.17-0.08-0.21,0.06-0.29,0.13c-0.66,0.62-1.09,1.38-1.45,2.22
	c-0.47-0.37-1.04-0.34-1.71-0.33c0.77-0.62,1.56-1.05,2.37-1.41c0.22-0.1,0.34-0.13,0.22-0.39c-0.12-0.25-0.24-0.32-0.5-0.14
	c-0.43,0.28-0.93,0.38-1.5,0.31c0.09-0.11,0.18-0.19,0.24-0.28c0.09-0.14,0.23-0.28,0.11-0.47c-0.05-0.07-0.11-0.15-0.22-0.13
	c-0.2,0.04-0.25,0.19-0.32,0.36c-0.1,0.22,0,0.48-0.18,0.66c-0.61,0.64-1.24,1.26-2.07,1.76c0.21-0.54,0.5-0.92,0.82-1.27
	c0.18-0.2,0.05-0.32-0.04-0.45c-0.12-0.17-0.26-0.06-0.37,0.04c-0.16,0.15-0.31,0.31-0.48,0.44c-0.52,0.41-1.02,0.84-1.7,1.18
	c0.52-0.95,1.16-1.64,2.08-2.03c0.19-0.08,0.38-0.09,0.56-0.05c0.24,0.04,0.1,0.28,0.16,0.5c0.13-0.62,0.03-0.77-0.47-0.78
	c-1.02-0.02-1.75,0.56-2.38,1.25c-0.4,0.44-0.74,0.91-1.4,1.21c0.34-0.74,0.74-1.31,1.19-1.85c0.16-0.19,0.11-0.32-0.01-0.46
	c-0.12-0.16-0.28-0.19-0.45-0.04c-0.32,0.28-0.66,0.54-0.96,0.83c-0.33,0.31-0.62,0.66-0.94,0.99c0.16-0.43,0.34-0.85,0.66-1.15
	c0.23-0.22,0.22-0.41,0.05-0.6c-0.19-0.22-0.38-0.04-0.53,0.09c-0.35,0.3-0.68,0.61-1.02,0.92c-0.13,0.12-0.25,0.24-0.51,0.31
	c0.25-0.34,0.45-0.61,0.65-0.87c0.04-0.05,0.07-0.11,0.12-0.13c0.19-0.06,0.24-0.17,0.1-0.32c-0.13-0.13-0.28-0.29-0.48-0.11
	c-0.14,0.12-0.27,0.25-0.37,0.43c-0.11,0.22-1.05,0.2-1.19,0c-0.06-0.08,0.02-0.13,0.04-0.19c0.43-1.07,1-2.05,1.74-2.93
	c0.07-0.08,0.37-0.12,0.2-0.3c-0.12-0.13-0.31-0.27-0.55-0.21c-0.14,0.04-0.22,0.14-0.31,0.24c-1.01,1.04-2.02,2.08-3.03,3.11
	c-0.1,0.1-0.17,0.24-0.36,0.22c-0.66-0.05-1.31,0.09-1.96,0.19c-0.43,0.06-0.9,0.1-1.24,0.46c-0.19,0.2-0.01,0.31,0.07,0.44
	c0.09,0.15,0.18,0.1,0.3,0c0.39-0.3,0.86-0.46,1.34-0.56c0.38-0.08,0.75-0.25,1.15-0.15c-0.66,0.69-1.33,1.34-2.08,1.9
	c-0.58,0.43-1.16,0.86-1.87,1.07c-0.73,0.22-1.1,0.01-1-0.59c-0.27,0.23-0.23,0.52-0.12,0.75c0.11,0.23,0.34,0.38,0.63,0.41
	c0.54,0.05,0.99-0.17,1.42-0.44c1.08-0.68,1.98-1.57,2.84-2.49c0.41-0.44,0.81-0.82,1.46-0.8c0.13,0,0.3-0.07,0.38,0.03
	c0.08,0.1-0.02,0.24-0.07,0.37c-0.24,0.65-0.53,1.28-0.54,1.99c0,0.24,0.05,0.45,0.33,0.55c0.26,0.09,0.45,0.02,0.69-0.2
	c-0.49,0.1-0.54-0.08-0.44-0.44c0.17-0.64,0.44-1.24,0.65-1.86c0.12-0.35,0.31-0.42,0.57-0.34c0.2,0.06,0.41,0.04,0.64,0.11
	c-0.25,0.45-0.49,0.88-0.74,1.32c-0.14,0.25-0.12,0.48,0.07,0.67c0.07,0.07,0.14,0.13,0.23-0.04c0.37-0.65,0.93-1.15,1.48-1.64
	c0.14-0.12,0.28-0.33,0.57-0.34c-0.35,0.35-0.5,0.76-0.7,1.15c-0.11,0.21-0.08,0.45,0.14,0.59c0.26,0.15,0.36-0.1,0.48-0.25
	c0.43-0.54,0.96-0.99,1.46-1.46c-0.23,0.46-0.55,0.86-0.72,1.35c-0.09,0.26-0.01,0.4,0.13,0.54c0.17,0.18,0.37,0.1,0.54-0.02
	c0.22-0.16,0.43-0.32,0.66-0.5c0.14,0.64,0.33,0.81,0.88,0.38c0.37-0.28,0.76-0.54,1.15-0.95c-0.06,0.2-0.09,0.31-0.13,0.41
	c-0.09,0.24-0.17,0.49,0.05,0.69c0.27,0.24,0.5,0,0.69-0.14c0.64-0.45,1.15-1.06,1.73-1.6c0.38-0.36,0.36-0.38,0.92-0.22
	c-0.04,0.03-0.08,0.07-0.11,0.09c-0.63,0.37-1.25,0.75-1.74,1.31c-0.14,0.16-0.28,0.31-0.09,0.54c0.19,0.22,0.3,0.07,0.48-0.02
	c0.72-0.35,1.45-0.52,2.18,0c0.23,0.16,0.5,0.2,0.75-0.01c0.34-0.29,0.7-0.55,1.12-0.88c-0.37,0.75-0.34,0.87,0.11,1.09
	c0.48-0.9,1.25-1.49,2.07-2.05c0.1,0.16,0.01,0.21-0.05,0.27c-0.26,0.3-0.42,0.67-0.58,1.03c-0.1,0.22-0.03,0.42,0.16,0.59
	c0.22,0.19,0.39,0.03,0.54-0.06c0.22-0.13,0.42-0.31,0.63-0.48c0.24,0.73,0.34,0.75,0.99,0.33c0.44-0.29,0.82-0.65,1.28-0.91
	c-0.27,0.4-0.33,0.9-0.87,1.12c-0.47,0.19-0.9,0.52-1.32,0.82c-0.57,0.41-1.09,0.9-1.43,1.53c-0.14,0.26-0.19,0.56-0.02,0.79
	c0.18,0.24,0.45,0.18,0.72,0.09c0.91-0.32,1.46-1.03,2.07-1.71c0.65-0.73,0.83-1.83,1.92-2.28c-0.23-0.02-0.35,0.14-0.51,0.02
	c0.12-0.19,0.22-0.38,0.35-0.55c0.15-0.21,0.21-0.41-0.02-0.6c-0.24-0.21-0.38-0.02-0.54,0.11c-0.57,0.48-1.13,0.97-1.82,1.29
	c0.49-0.83,1.08-1.54,2.01-1.91c0.35-0.14,0.63-0.16,0.7,0.37C31.9,16.39,31.78,16.18,31.38,16.13z M12.3,16.42
	c-0.1,0.2-0.26,0.15-0.42,0.16c-0.18,0-0.35,0-0.64,0c0.69-0.77,1.3-1.49,2.08-2.21C12.95,15.12,12.62,15.77,12.3,16.42z
	 M27.12,21.78c-0.52-1.2,3.04-2.91,3.04-2.91S27.47,22.58,27.12,21.78z"/>
</svg>
